<svg id="Layer_1" data-name="Layer 1" xmlns="http://www.w3.org/2000/svg" viewBox="0 0 1024 1024">
  <defs>
    <style>
      .cls-1{fill:#1269B8;}
      .cls-2{fill:#fff;}
      .cls-3{fill:#fff; stroke: #1269B8; stroke-width: 25px;}
      .cls-4{fill:#B87200}
    </style>
  </defs>
  <title>JSReport</title>
  <polygon class="cls-1" points="74.35 514.47 0 469.86 74.1 439.52 31.46 407.33 466.73 213.26 987.87 582.3 1024 605.12 570.34 810.74 5.1 541.26 74.35 514.47"/>
  <polygon class="cls-1" points="570.59 784.98 64.06 543.49 349.99 432.87 860.77 630.28 570.59 784.98"/>
  <polygon class="cls-2" points="570.59 784.98 51.99 473.81 488.76 295.01 974.89 601.73 570.59 784.98"/>
  <polygon class="cls-3" points="570.59 784.98 77.14 412.54 464.09 240.01 974.6 601.53 570.59 784.98"/>
  <polygon class="cls-4" points="466.17 301.52 209.79 415.35 231.98 432.1 486.54 315.94 466.17 301.52"/>
  <polygon class="cls-4" points="510.34 332.79 249.53 448.78 271.72 465.53 530.69 347.21 510.34 332.79"/>
  <polygon class="cls-4" points="574.47 378.2 448.1 432.77 470.29 449.52 594.88 392.66 574.47 378.2"/>
  <polygon class="cls-4" points="619.35 409.99 404.65 504.62 426.83 521.36 639.73 424.42 619.35 409.99"/>
</svg>
